<?xml version="1.0"?>
<svg xmlns="http://www.w3.org/2000/svg" xmlns:xlink="http://www.w3.org/1999/xlink" xmlns:svgjs="http://svgjs.com/svgjs" version="1.1" width="512" height="512" x="0" y="0" viewBox="0 0 512.00014 512" style="enable-background:new 0 0 512 512" xml:space="preserve"><g><path xmlns="http://www.w3.org/2000/svg" d="m51.199219 324.265625h102.402343c9.421876-.007813 17.054688-7.644531 17.066407-17.066406v-17.066407c-.011719-9.421874-7.644531-17.058593-17.066407-17.066406h-102.402343c-9.421875.007813-17.054688 7.644532-17.066407 17.066406v17.066407c.011719 9.421875 7.644532 17.058593 17.066407 17.066406zm0-34.132813h102.402343l.011719 17.066407h-102.414062zm0 0" fill="#9fa3a9" data-original="#000000" style=""/><path xmlns="http://www.w3.org/2000/svg" d="m42.667969 409.601562h119.464843c4.714844 0 8.535157-3.820312 8.535157-8.535156 0-4.710937-3.820313-8.53125-8.535157-8.53125h-119.464843c-4.714844 0-8.535157 3.820313-8.535157 8.53125 0 4.714844 3.820313 8.535156 8.535157 8.535156zm0 0" fill="#9fa3a9" data-original="#000000" style=""/><path xmlns="http://www.w3.org/2000/svg" d="m42.667969 443.734375h187.730469c4.714843 0 8.535156-3.820313 8.535156-8.535156 0-4.710938-3.820313-8.53125-8.535156-8.53125h-187.730469c-4.714844 0-8.535157 3.820312-8.535157 8.53125 0 4.714843 3.820313 8.535156 8.535157 8.535156zm0 0" fill="#9fa3a9" data-original="#000000" style=""/><path xmlns="http://www.w3.org/2000/svg" d="m42.667969 477.867188h68.265625c4.710937 0 8.535156-3.820313 8.535156-8.535157 0-4.710937-3.824219-8.53125-8.535156-8.53125h-68.265625c-4.714844 0-8.535157 3.820313-8.535157 8.53125 0 4.714844 3.820313 8.535157 8.535157 8.535157zm0 0" fill="#9fa3a9" data-original="#000000" style=""/><path xmlns="http://www.w3.org/2000/svg" d="m238.933594 187.734375h17.066406c9.421875-.011719 17.058594-7.644531 17.066406-17.066406v-17.066407c-.007812-9.421874-7.644531-17.058593-17.066406-17.066406h-17.066406c-9.421875.007813-17.058594 7.644532-17.066406 17.066406v17.066407c.007812 9.421875 7.644531 17.054687 17.066406 17.066406zm0-34.132813h17.066406l.011719 17.066407h-17.078125zm0 0" fill="#9fa3a9" data-original="#000000" style=""/><path xmlns="http://www.w3.org/2000/svg" d="m238.933594 119.464844h17.066406c9.421875-.007813 17.058594-7.644532 17.066406-17.066406v-17.066407c-.007812-9.421875-7.644531-17.054687-17.066406-17.066406h-17.066406c-9.421875.011719-17.058594 7.644531-17.066406 17.066406v17.066407c.007812 9.421874 7.644531 17.058593 17.066406 17.066406zm0-34.132813h17.066406l.011719 17.066407h-17.078125zm0 0" fill="#9fa3a9" data-original="#000000" style=""/><path xmlns="http://www.w3.org/2000/svg" d="m238.933594 51.199219h17.066406c9.421875-.007813 17.058594-7.644531 17.066406-17.066407v-17.066406c-.007812-9.421875-7.644531-17.0585935-17.066406-17.066406h-17.066406c-9.421875.0078125-17.058594 7.644531-17.066406 17.066406v17.066406c.007812 9.421876 7.644531 17.058594 17.066406 17.066407zm0-34.132813h17.066406l.011719 17.066406h-17.078125zm0 0" fill="#9fa3a9" data-original="#000000" style=""/><path xmlns="http://www.w3.org/2000/svg" d="m307.199219 119.464844h17.066406c9.421875-.007813 17.058594-7.644532 17.066406-17.066406v-17.066407c-.007812-9.421875-7.644531-17.054687-17.066406-17.066406h-17.066406c-9.421875.011719-17.054688 7.644531-17.066407 17.066406v17.066407c.011719 9.421874 7.644532 17.058593 17.066407 17.066406zm0-34.132813h17.066406l.015625 17.066407h-17.082031zm0 0" fill="#9fa3a9" data-original="#000000" style=""/><path xmlns="http://www.w3.org/2000/svg" d="m375.46875 187.734375h17.066406c9.421875-.011719 17.054688-7.644531 17.066406-17.066406v-17.066407c-.011718-9.421874-7.644531-17.058593-17.066406-17.066406h-17.066406c-9.421875.007813-17.058594 7.644532-17.070312 17.066406v17.066407c.011718 9.421875 7.648437 17.054687 17.070312 17.066406zm0-34.132813h17.066406l.011719 17.066407h-17.078125zm0 0" fill="#9fa3a9" data-original="#000000" style=""/><path xmlns="http://www.w3.org/2000/svg" d="m375.46875 51.199219h17.066406c9.421875-.007813 17.054688-7.644531 17.066406-17.066407v-17.066406c-.011718-9.421875-7.644531-17.0585935-17.066406-17.066406h-17.066406c-9.421875.0078125-17.058594 7.644531-17.070312 17.066406v17.066406c.011718 9.421876 7.648437 17.058594 17.070312 17.066407zm0-34.132813h17.066406l.011719 17.066406h-17.078125zm0 0" fill="#9fa3a9" data-original="#000000" style=""/><path xmlns="http://www.w3.org/2000/svg" d="m238.933594 324.265625h17.066406c9.421875-.007813 17.058594-7.644531 17.066406-17.066406v-17.066407c-.007812-9.421874-7.644531-17.058593-17.066406-17.066406h-17.066406c-9.421875.007813-17.058594 7.644532-17.066406 17.066406v17.066407c.007812 9.421875 7.644531 17.058593 17.066406 17.066406zm0-34.132813h17.066406l.011719 17.066407h-17.078125zm0 0" fill="#9fa3a9" data-original="#000000" style=""/><path xmlns="http://www.w3.org/2000/svg" d="m375.46875 324.265625h17.066406c9.421875-.007813 17.054688-7.644531 17.066406-17.066406v-17.066407c-.011718-9.421874-7.644531-17.058593-17.066406-17.066406h-17.066406c-9.421875.007813-17.058594 7.644532-17.070312 17.066406v17.066407c.011718 9.421875 7.648437 17.058593 17.070312 17.066406zm0-34.132813h17.066406l.011719 17.066407h-17.078125zm0 0" fill="#9fa3a9" data-original="#000000" style=""/><path xmlns="http://www.w3.org/2000/svg" d="m307.199219 392.535156h17.066406c9.421875-.011718 17.058594-7.648437 17.066406-17.070312v-17.066406c-.007812-9.421876-7.644531-17.054688-17.066406-17.066407h-17.066406c-9.421875.011719-17.054688 7.644531-17.066407 17.066407v17.066406c.011719 9.421875 7.644532 17.058594 17.066407 17.070312zm0-34.136718h17.066406l.015625 17.066406h-17.082031zm0 0" fill="#9fa3a9" data-original="#000000" style=""/><path xmlns="http://www.w3.org/2000/svg" d="m375.46875 460.800781h17.066406c9.421875-.011719 17.054688-7.644531 17.066406-17.066406v-17.066406c-.011718-9.421875-7.644531-17.058594-17.066406-17.066407h-17.066406c-9.421875.007813-17.058594 7.644532-17.070312 17.066407v17.066406c.011718 9.421875 7.648437 17.054687 17.070312 17.066406zm0-34.132812h17.066406l.011719 17.066406h-17.078125zm0 0" fill="#9fa3a9" data-original="#000000" style=""/><path xmlns="http://www.w3.org/2000/svg" d="m443.734375 119.464844h17.066406c9.421875-.007813 17.054688-7.644532 17.066407-17.066406v-17.066407c-.011719-9.421875-7.644532-17.054687-17.066407-17.066406h-17.066406c-9.421875.011719-17.058594 7.644531-17.066406 17.066406v17.066407c.007812 9.421874 7.644531 17.058593 17.066406 17.066406zm0-34.132813h17.066406l.011719 17.066407h-17.078125zm0 0" fill="#9fa3a9" data-original="#000000" style=""/><path xmlns="http://www.w3.org/2000/svg" d="m443.734375 392.535156h17.066406c9.421875-.011718 17.054688-7.648437 17.066407-17.070312v-17.066406c-.011719-9.421876-7.644532-17.054688-17.066407-17.066407h-17.066406c-9.421875.011719-17.058594 7.644531-17.066406 17.066407v17.066406c.007812 9.421875 7.644531 17.058594 17.066406 17.070312zm0-34.136718h17.066406l.011719 17.066406h-17.078125zm0 0" fill="#9fa3a9" data-original="#000000" style=""/><path xmlns="http://www.w3.org/2000/svg" d="m443.734375 51.199219h17.066406c9.421875-.007813 17.054688-7.644531 17.066407-17.066407v-17.066406c-.011719-9.421875-7.644532-17.0585935-17.066407-17.066406h-17.066406c-9.421875.0078125-17.058594 7.644531-17.066406 17.066406v17.066406c.007812 9.421876 7.644531 17.058594 17.066406 17.066407zm0-34.132813h17.066406l.011719 17.066406h-17.078125zm0 0" fill="#9fa3a9" data-original="#000000" style=""/><path xmlns="http://www.w3.org/2000/svg" d="m25.601562 512h460.796876c14.132812-.015625 25.585937-11.46875 25.601562-25.601562v-238.933594c-.015625-14.128906-11.46875-25.582032-25.601562-25.597656h-8.53125c-.011719-9.421876-7.644532-17.058594-17.066407-17.066407h-17.066406c-9.421875.007813-17.058594 7.644531-17.066406 17.066407h-85.335938c-.007812-9.421876-7.644531-17.058594-17.066406-17.066407h-17.066406c-9.421875.007813-17.054688 7.644531-17.066407 17.066407h-17.066406c-.007812-9.421876-7.644531-17.058594-17.066406-17.066407h-17.066406c-9.421875.007813-17.058594 7.644531-17.066406 17.066407h-14.996094c-4.53125.011718-8.875-1.789063-12.070313-5l-19.132812-19.132813c-6.386719-6.425781-15.082031-10.027344-24.140625-10h-98.257813c-9.058593-.027344-17.75 3.574219-24.136719 10l-19.132812 19.132813c-6.425781 6.386718-10.0273438 15.078124-10 24.136718v245.394532c.015625 14.132812 11.46875 25.585937 25.601562 25.601562zm418.132813-290.132812h17.066406l.003907 8.503906-.003907.027344v8.535156h-17.066406zm-136.535156 0h17.066406l.007813 8.503906-.007813.027344v8.535156h-17.066406zm-68.265625 0h17.066406l.007812 8.503906-.007812.027344v8.535156h-17.066406zm-221.867188 19.136718c-.011718-4.53125 1.789063-8.875 5-12.070312l19.132813-19.132813c3.195312-3.210937 7.542969-5.011719 12.070312-5h98.257813c4.53125-.011719 8.878906 1.789063 12.074218 5l19.132813 19.132813c6.386719 6.425781 15.078125 10.023437 24.136719 10h14.996094c.007812 9.421875 7.644531 17.058594 17.066406 17.066406h17.066406c9.421875-.007812 17.058594-7.644531 17.066406-17.066406h17.066406c.011719 9.421875 7.644532 17.058594 17.066407 17.066406h17.066406c9.421875-.007812 17.058594-7.644531 17.066406-17.066406h85.335938c.007812 9.421875 7.644531 17.058594 17.066406 17.066406h17.066406c9.421875-.007812 17.054688-7.644531 17.066407-17.066406h8.53125c4.710937.007812 8.527343 3.824218 8.535156 8.53125v238.933594c-.007813 4.710937-3.824219 8.527343-8.535156 8.535156h-460.796876c-4.710937-.007813-8.527343-3.824219-8.535156-8.535156zm0 0" fill="#9fa3a9" data-original="#000000" style=""/></g></svg>
